<svg xmlns="http://www.w3.org/2000/svg" width="27.949" height="32.945" viewBox="0 0 27.949 32.945"><g transform="matrix(0.819, -0.574, 0.574, 0.819, 0, 6.706)"><path d="M1.88,0H0V8.651H1.88A1.492,1.492,0,0,0,3.371,7.16V1.491A1.491,1.491,0,0,0,1.88,0Z" transform="translate(8.319 0)" fill="#fff"/><path d="M0,16.016c0,8.067,3.156,16.016,6.78,16.016H7.3V23.341a1.488,1.488,0,0,1-1.152-1.263,33.57,33.57,0,0,1-.419-6.062,33.57,33.57,0,0,1,.419-6.062A1.488,1.488,0,0,1,7.3,8.692V0H6.78C3.156,0,0,7.95,0,16.016Z" transform="translate(0 0)" fill="#fff"/><path d="M1.88,0H0V8.651H1.88A1.491,1.491,0,0,0,3.371,7.16V1.492A1.492,1.492,0,0,0,1.88,0Z" transform="translate(8.319 23.381)" fill="#fff"/></g></svg>