<svg xmlns="http://www.w3.org/2000/svg" width="68.279" height="86.969" viewBox="0 0 68.279 86.969"><g transform="translate(0)"><path d="M122.7,73.006a13.624,13.624,0,0,0-5.3-7.71,21.4,21.4,0,0,0-3.57-2.091c-1.844-.876-3.739-1.545-5.486-2.19a31.355,31.355,0,0,1-4.626-2l-.141-.08a9.184,9.184,0,0,1-1.216-.839,5.309,5.309,0,0,1-1.247-1.447,4.678,4.678,0,0,1-.579-1.866,6.261,6.261,0,0,1-.08-1.019,22,22,0,0,1,.475-4.358,16.742,16.742,0,0,0,2.182-3.206,35.068,35.068,0,0,0,1.975-4.512,8.894,8.894,0,0,0,1.239-.69,8.794,8.794,0,0,0,2.543-2.654,13.774,13.774,0,0,0,1.725-4.379,6.6,6.6,0,0,0-.475-4.3,7.617,7.617,0,0,0-1.04-1.635c.21-.775.464-1.815.69-3.042a32.4,32.4,0,0,0,.576-5.871,21.576,21.576,0,0,0-.39-4.22A15.142,15.142,0,0,0,109,11.789a11.58,11.58,0,0,0-2.933-4.1,12.072,12.072,0,0,0-4.618-2.505,15.651,15.651,0,0,0-1.991-2.022,11.026,11.026,0,0,0-1.789-1.237A10.127,10.127,0,0,0,94.831.87a14.323,14.323,0,0,0-3-.281c-1.42.005-2.914.143-4.565.305-.621.064-1.147.141-1.6.22-.679.122-1.184.25-1.592.329a4.72,4.72,0,0,1-.557.09,3.476,3.476,0,0,1-.536.037,6.366,6.366,0,0,1-.953-.08A21.318,21.318,0,0,1,78.872.78c-.433-.133-.807-.26-1.1-.372C77.627.356,77.5.3,77.4.26s-.183-.08-.228-.1A1.329,1.329,0,0,0,76.8.029,1.451,1.451,0,0,0,76.5,0a1.645,1.645,0,0,0-.419.053,2.189,2.189,0,0,0-.25.088,2.385,2.385,0,0,0-.35.178,6.1,6.1,0,0,0-.576.4,13.832,13.832,0,0,0-1.123.982A18.623,18.623,0,0,0,71.96,3.74a12.566,12.566,0,0,0-.815,1.192,8.319,8.319,0,0,0-.634,1.279,34.327,34.327,0,0,0-1.752,6.078,28.208,28.208,0,0,0-.48,5.146,34.773,34.773,0,0,0,.7,6.579c0,.09.005.173.011.26.011.17.026.35.048.536.027.276.064.563.085.8.011.119.021.226.029.311a.77.77,0,0,1,.008.1v.191l.34,1.5a7.831,7.831,0,0,0-1.234,1.778,6.624,6.624,0,0,0-.56,4.48v-.005a15.3,15.3,0,0,0,1.046,3.126,9.633,9.633,0,0,0,2.317,3.2,8.452,8.452,0,0,0,2.147,1.4A35.378,35.378,0,0,0,75.19,46.2,16.573,16.573,0,0,0,77.372,49.4a22.3,22.3,0,0,1,.475,4.366,6.225,6.225,0,0,1-.08,1.016h0a4.762,4.762,0,0,1-.329,1.348,4.607,4.607,0,0,1-1.075,1.579,8.406,8.406,0,0,1-1.807,1.324l-.565.3c-.6.308-1.261.6-1.964.887-1.622.658-3.474,1.279-5.351,2.025a30.332,30.332,0,0,0-4.188,2,17.056,17.056,0,0,0-2.9,2.121,13.322,13.322,0,0,0-3.318,4.682,17.409,17.409,0,0,0-1.255,6.837,2.927,2.927,0,0,0,.212,1.067,3.951,3.951,0,0,0,.48.865,6.672,6.672,0,0,0,1.439,1.391,17.428,17.428,0,0,0,4.167,2.139,51.707,51.707,0,0,0,10.81,2.553,122.227,122.227,0,0,0,17.031,1.061,128.523,128.523,0,0,0,15.139-.812,70.8,70.8,0,0,0,8.212-1.439,38.616,38.616,0,0,0,4.528-1.38,21.888,21.888,0,0,0,2.551-1.141,12.434,12.434,0,0,0,1.478-.908,6.7,6.7,0,0,0,1.561-1.5,3.989,3.989,0,0,0,.483-.886,2.976,2.976,0,0,0,.188-1.014A18.924,18.924,0,0,0,122.7,73.006Zm-36.358.146-9.066-12.49c.117-.085.231-.175.345-.263a8.62,8.62,0,0,0,1.362-1.351l7.309,3.392-1.563,2.6L87.147,67.6ZM80.024,57.333a7.764,7.764,0,0,0,.576-2.256,9.228,9.228,0,0,0,.093-1.308,25.648,25.648,0,0,0-.616-5.34l-.085-.385-.273-.289a13.3,13.3,0,0,1-2.02-2.9,33.549,33.549,0,0,1-2.012-4.714l-.226-.632-.629-.228a5.8,5.8,0,0,1-2.994-2.452,10.957,10.957,0,0,1-1.354-3.487,3.748,3.748,0,0,1,.329-2.574,5.153,5.153,0,0,1,.934-1.285,21.7,21.7,0,0,0,1.391,1.967c.642.64.733-.868.43-2.561-.563-3.116,2.85-6.816,3.2-14.082,7.681,1.707,22.7-1.555,22.7-1.555a14.132,14.132,0,0,0,2.723,7.142C104.622,23.632,106,31.233,106,31.233s.332-.626.823-1.465a4.814,4.814,0,0,1,.722,1.1,3.83,3.83,0,0,1,.372,1.63,3.7,3.7,0,0,1-.1.839,12.3,12.3,0,0,1-.844,2.545,7,7,0,0,1-1.635,2.29,5.761,5.761,0,0,1-1.868,1.1l-.626.228-.223.629a34.618,34.618,0,0,1-2.014,4.719,13.3,13.3,0,0,1-2.025,2.9l-.271.289-.085.385a25.411,25.411,0,0,0-.616,5.335,8.534,8.534,0,0,0,.1,1.311,7.664,7.664,0,0,0,.5,2.065.714.714,0,0,0,.04.09L89.6,61.776Zm12.66,16.413L91.792,67.6,94.2,65.04l-1.566-2.612,6.611-3.472a8.78,8.78,0,0,0,.581.666,10.043,10.043,0,0,0,1.221,1.056Z" transform="translate(-55.014)" fill="#111"/></g></svg>