<svg xmlns="http://www.w3.org/2000/svg" width="20.969" height="20.972"><g data-name="鉛筆アイコン　5" fill="#fff"><path data-name="パス 6720" d="M20.103 3.199L17.77.868a1.6 1.6 0 00-2.261 0L13.997 2.38 2.654 13.724a2.939 2.939 0 00-.687 1.083l-1.5 4.168a1.193 1.193 0 001.529 1.524l4.168-1.5a2.944 2.944 0 001.084-.687L18.196 7.368l.4-.4 1.511-1.512a1.6 1.6 0 00-.004-2.257zM5.784 17.951l-2.655.955-1.063-1.065.954-2.655.024-.057 2.8 2.8c-.021.006-.039.015-.06.022zm.671-.425a1.7 1.7 0 01-.119.106l-3-3a1.98 1.98 0 01.106-.118L14.733 3.226l3.011 3.011zM19.311 4.67l-1.115 1.116-.056.056-3.012-3.012L16.3 1.658a.481.481 0 01.679 0l2.332 2.331a.48.48 0 010 .681z"/><path data-name="パス 6720 - アウトライン" d="M16.639-.001a1.987 1.987 0 011.414.586l2.331 2.332a2 2 0 010 2.826l-.056.056-2.1 2.1-10.698 10.7a3.365 3.365 0 01-1.231.781l-4.168 1.5a1.593 1.593 0 01-2.038-2.04l1.5-4.168a3.361 3.361 0 01.781-1.231L15.226.585a1.985 1.985 0 011.413-.586zm3.2 5.162a1.2 1.2 0 00-.016-1.679l-2.339-2.331a1.2 1.2 0 00-1.7 0L2.937 14.007a2.556 2.556 0 00-.594.936l-1.5 4.168a.793.793 0 001.015 1.015l4.167-1.5a2.559 2.559 0 00.936-.594l11.2-11.2zm-3.2-4.043a.877.877 0 01.622.257l2.333 2.332a.883.883 0 010 1.244L18.31 6.237 6.739 17.808c-.049.049-.1.091-.144.13l-.1.08.048.048-.209.087-.024.02-.007-.007-.319.133a.916.916 0 01-.066.027l-2.891 1.042-1.423-1.424 1.042-2.9.021-.052.006-.013.128-.318.013-.016.09-.222.053.053.081-.1c.039-.046.081-.1.13-.144l11.4-11.4 1.449-1.457a.875.875 0 01.622-.257zm1.5 4.158l.889-.889a.08.08 0 000-.114l-2.331-2.331a.08.08 0 00-.057-.024.079.079 0 00-.057.023l-.889.889zm-.961.961l-2.445-2.446L3.898 14.627l2.446 2.445zM5.116 17.767l-1.912-1.912-.676 1.882.706.706z"/></g></svg>