<svg xmlns="http://www.w3.org/2000/svg" width="69" height="69"><defs><clipPath id="a"><path data-name="長方形 23001" transform="translate(744.656 4551.656)" fill="#fff" stroke="#707070" opacity=".488" d="M0 0h69v69H0z"/></clipPath></defs><g data-name="マスクグループ 63" transform="translate(-744.656 -4551.656)" clip-path="url(#a)"><g data-name="グループ 5325"><g data-name="グループ 4209"><g data-name="グループ 4208"><path data-name="線 478" d="M760.305 4592.471a.9.9 0 01-.639-.264l-7.636-7.639a.9.9 0 010-1.273.9.9 0 011.273 0l7.638 7.637a.9.9 0 01-.636 1.536z"/><path data-name="線 479" d="M754.293 4584.904a.9.9 0 01-.635-.262.9.9 0 010-1.273l12.235-12.307a.9.9 0 011.273 0 .9.9 0 010 1.273l-12.235 12.303a.9.9 0 01-.638.266z"/><path data-name="パス 1498" d="M779.331 4574.242H771.2a4.927 4.927 0 01-3.466-1.415l-4.034-3.96" fill="rgba(0,0,0,0)"/><path data-name="パス 1498 - アウトライン" d="M779.331 4575.142H771.2a5.832 5.832 0 01-4.1-1.675l-4.029-3.958a.9.9 0 111.261-1.284l4.031 3.961.006.006a4.02 4.02 0 002.829 1.151h8.134a.9.9 0 110 1.8z"/><path data-name="パス 1499" d="M745.452 4584.71l4.1 4.1 18.32-18.318-4.1-4.1" fill="#fff"/><path data-name="パス 1499 - アウトライン" d="M749.552 4589.712a.9.9 0 01-.636-.264l-4.1-4.1a.9.9 0 111.273-1.273l3.466 3.466 17.045-17.049-3.466-3.466a.9.9 0 011.273-1.273l4.1 4.1a.9.9 0 010 1.273l-18.316 18.323a.9.9 0 01-.639.263z"/><g data-name="グループ 4206"><path data-name="パス 1500" d="M761.083 4590.793l18.813 18.813a2.9 2.9 0 004.1-4.1l-1.627-1.627" fill="rgba(0,0,0,0)"/><path data-name="パス 1500 - アウトライン" d="M781.947 4611.355a3.776 3.776 0 01-2.687-1.112l-18.813-18.814a.9.9 0 011.273-1.273l18.813 18.814a2 2 0 002.829-2.829l-1.627-1.627a.9.9 0 011.273-1.273l1.627 1.627a3.8 3.8 0 01-2.687 6.487z"/><path data-name="パス 1501" d="M779.826 4601.327l5.022 5.022a2.9 2.9 0 004.1-4.1l-3.322-3.322" fill="rgba(0,0,0,0)"/><path data-name="パス 1501 - アウトライン" d="M786.899 4608.102a3.775 3.775 0 01-2.687-1.112l-5.022-5.022a.9.9 0 011.273-1.273l5.022 5.022a2 2 0 002.829-2.829l-3.324-3.324a.9.9 0 011.273-1.273l3.324 3.324a3.8 3.8 0 01-2.687 6.487z"/><path data-name="パス 1502" d="M783.928 4597.298l5.8 5.8a2.9 2.9 0 004.1-4.1l-5.8-5.8" fill="rgba(0,0,0,0)"/><path data-name="パス 1502 - アウトライン" d="M791.779 4604.849a3.775 3.775 0 01-2.687-1.112l-5.8-5.8a.9.9 0 011.273-1.273l5.8 5.8a2 2 0 102.829-2.829l-5.8-5.8a.9.9 0 111.273-1.273l5.8 5.8a3.8 3.8 0 01-2.687 6.487z"/></g><g data-name="グループ 4207"><path data-name="パス 1503" d="M775.016 4609.607a2.9 2.9 0 01-4.1-4.1l1.627-1.627a2.9 2.9 0 014.1 4.1z" fill="#fff"/><path data-name="パス 1503 - アウトライン" d="M772.965 4613.455a5.9 5.9 0 01-4.172-10.072l1.627-1.627a5.9 5.9 0 018.345 8.345l-1.628 1.628a5.862 5.862 0 01-4.172 1.726z" fill="#fff"/><path data-name="パス 1504" d="M762.851 4597.229a2.9 2.9 0 01-4.1-4.1l3.324-3.324a2.9 2.9 0 114.1 4.1z" fill="#fff"/><path data-name="パス 1504 - アウトライン" d="M760.8 4601.078a5.9 5.9 0 01-4.172-10.072l3.324-3.324a5.9 5.9 0 018.345 8.345l-3.325 3.327a5.862 5.862 0 01-4.172 1.724z" fill="#fff"/><path data-name="パス 1505" d="M775.016 4609.607a2.9 2.9 0 01-4.1-4.1l1.627-1.627a2.9 2.9 0 014.1 4.1z" fill="#fff"/><path data-name="パス 1505 - アウトライン" d="M772.965 4611.355a3.8 3.8 0 01-2.687-6.487l1.627-1.627a3.8 3.8 0 015.375 5.375l-1.627 1.627a3.776 3.776 0 01-2.688 1.112zm1.627-7.426a1.987 1.987 0 00-1.415.585l-1.627 1.627a2 2 0 002.829 2.829l1.627-1.627a2 2 0 00-1.415-3.415z"/><path data-name="パス 1506" d="M762.851 4597.229a2.9 2.9 0 01-4.1-4.1l3.324-3.324a2.9 2.9 0 114.1 4.1z" fill="#fff"/><path data-name="パス 1506 - アウトライン" d="M760.8 4598.978a3.8 3.8 0 01-2.687-6.487l3.324-3.324a3.8 3.8 0 015.375 5.375l-3.324 3.324a3.776 3.776 0 01-2.688 1.112zm3.324-9.124a1.987 1.987 0 00-1.415.585l-3.324 3.324a2 2 0 002.829 2.829l3.324-3.324a2 2 0 00-1.415-3.414z"/><path data-name="パス 1507" d="M770.065 4606.353a2.9 2.9 0 01-4.1-4.1l3.324-3.324a2.9 2.9 0 114.1 4.1z" fill="#fff"/><path data-name="パス 1507 - アウトライン" d="M768.014 4608.102a3.8 3.8 0 01-2.687-6.487l3.324-3.324a3.8 3.8 0 015.375 5.375l-3.324 3.324a3.776 3.776 0 01-2.688 1.112zm3.324-9.124a1.987 1.987 0 00-1.415.585l-3.324 3.324a2 2 0 002.829 2.829l3.324-3.324a2 2 0 00-1.415-3.414z"/><path data-name="パス 1508" d="M765.114 4603.1a2.9 2.9 0 01-4.1-4.1l5.022-5.022a2.9 2.9 0 114.1 4.1z" fill="#fff"/><path data-name="パス 1508 - アウトライン" d="M763.063 4604.848a3.8 3.8 0 01-2.687-6.487l5.022-5.022a3.8 3.8 0 015.375 5.375l-5.022 5.022a3.775 3.775 0 01-2.688 1.112zm5.021-10.821a1.987 1.987 0 00-1.415.585l-5.022 5.022a2 2 0 002.829 2.829l5.022-5.022a2 2 0 00-1.415-3.414z"/></g><path data-name="線 480" d="M794.607 4592.471a.9.9 0 01-.636-.264.9.9 0 010-1.275l7.636-7.636a.9.9 0 011.273 0 .9.9 0 010 1.273l-7.637 7.638a.9.9 0 01-.636.264z"/><path data-name="線 481" d="M801.539 4585.823a.9.9 0 01-.636-.264l-13.226-13.226a.9.9 0 010-1.273.9.9 0 011.273 0l13.225 13.227a.9.9 0 01-.636 1.536z"/><path data-name="パス 1509" d="M767.377 4582.094l6.507-6.507a4.665 4.665 0 013.253-1.344h6.578" fill="rgba(0,0,0,0)"/><path data-name="パス 1509 - アウトライン" d="M767.377 4585.094a3 3 0 01-2.121-5.121l6.507-6.507a7.652 7.652 0 015.374-2.223h6.578a3 3 0 010 6h-6.578a1.656 1.656 0 00-1.132.465l-6.507 6.507a2.991 2.991 0 01-2.121.879z" fill="#fff"/><path data-name="線 482" d="M796.163 4596.127a2.991 2.991 0 01-2.121-.879l-10.892-10.892a3 3 0 010-4.243 3 3 0 014.243 0l10.891 10.893a3 3 0 01-2.121 5.121z" fill="#fff"/><path data-name="パス 1510" d="M789.657 4594.824l2.334 2.334a2.971 2.971 0 004.1.141 2.925 2.925 0 00.071-4.173l-10.891-10.891a4.541 4.541 0 00-3.253-1.344h-5.3l-2.4 2.4a5.747 5.747 0 01-6.578 1.132 1.446 1.446 0 01-.424-2.334l6.507-6.507a4.665 4.665 0 013.253-1.344h6.578a4.927 4.927 0 003.466-1.415l3.183-3.112" fill="rgba(0,0,0,0)"/><path data-name="パス 1510 - アウトライン" d="M794.122 4598.953h-.139a3.912 3.912 0 01-2.628-1.156l-2.334-2.334a.9.9 0 111.273-1.273l2.334 2.334a2.076 2.076 0 002.86.112 2.026 2.026 0 00.041-2.871l-10.894-10.894a3.626 3.626 0 00-2.617-1.08h-4.932l-2.141 2.141a6.692 6.692 0 01-3.643 1.878 6.44 6.44 0 01-3.962-.572 2.346 2.346 0 01-.67-3.781l6.507-6.507a5.538 5.538 0 013.89-1.607h6.578a4.019 4.019 0 002.829-1.151l.007-.007 3.183-3.112a.9.9 0 011.258 1.287l-3.179 3.109a5.832 5.832 0 01-4.1 1.674h-6.578a3.776 3.776 0 00-2.617 1.08l-6.507 6.507a.535.535 0 00-.149.476.548.548 0 00.314.4l.025.012a4.864 4.864 0 005.539-.963l2.4-2.4a.9.9 0 01.636-.264h5.3a5.463 5.463 0 013.89 1.607l10.892 10.892a3.819 3.819 0 011.1 2.747 3.778 3.778 0 01-1.194 2.718l-.021.019a3.869 3.869 0 01-2.551.979z"/><path data-name="パス 1511" d="M809.46 4584.71l-4.1 4.1-18.32-18.318 4.1-4.1" fill="#fff"/><path data-name="パス 1511 - アウトライン" d="M805.358 4589.712a.9.9 0 01-.636-.264l-18.318-18.317a.9.9 0 010-1.273l4.1-4.1a.9.9 0 111.273 1.273l-3.466 3.466 17.046 17.046 3.466-3.466a.9.9 0 111.273 1.273l-4.1 4.1a.9.9 0 01-.638.262z"/></g></g></g></g></svg>