<svg xmlns="http://www.w3.org/2000/svg" width="64" height="64"><defs><clipPath id="a"><path data-name="長方形 23002" transform="translate(178.612 4550.612)" fill="#fff" stroke="#707070" opacity=".488" d="M0 0h64v64H0z"/></clipPath><clipPath id="b"><path data-name="長方形 22880" fill="#fff" stroke="#707070" d="M0 0h56.773v56.773H0z"/></clipPath></defs><g data-name="マスクグループ 62" transform="translate(-178.612 -4550.612)" clip-path="url(#a)"><g data-name="マスクグループ 7" transform="translate(179 4553.974)" clip-path="url(#b)"><g data-name="グループ 5334"><g data-name="グループ 5333"><g data-name="グループ 5331"><g data-name="グループ 5330"><g data-name="グループ 5329"><path data-name="パス 3267" d="M48.741 48.193h-2V20.871h-7.645v-2h8.645a1 1 0 011 1z"/><g data-name="グループ 5326"><path data-name="線 926" d="M42.837 26.548h-1.935a1 1 0 01-1-1 1 1 0 011-1h1.935a1 1 0 011 1 1 1 0 01-1 1z"/><path data-name="線 927" d="M42.837 32.225h-1.935a1 1 0 01-1-1 1 1 0 011-1h1.935a1 1 0 011 1 1 1 0 01-1 1z"/><path data-name="線 928" d="M42.837 37.903h-1.935a1 1 0 01-1-1 1 1 0 011-1h1.935a1 1 0 011 1 1 1 0 01-1 1z"/><path data-name="線 929" d="M42.837 43.515h-1.935a1 1 0 01-1-1 1 1 0 011-1h1.935a1 1 0 011 1 1 1 0 01-1 1z"/></g><g data-name="グループ 5327"><path data-name="線 930" d="M40.902 26.548h-1.806v-2h1.806z"/><path data-name="線 931" d="M40.902 32.225h-1.806v-2h1.806z"/><path data-name="線 932" d="M40.902 37.903h-1.806v-2h1.806z"/><path data-name="線 933" d="M40.902 43.515h-1.806v-2h1.806z"/></g><path data-name="線 934" d="M36.515 51.193a3 3 0 01-3-3V14.258a3 3 0 013-3 3 3 0 013 3v33.935a3 3 0 01-3 3z" fill="#fff"/><g data-name="グループ 5328"><path data-name="線 935" d="M30.451 20.871H16.064a1 1 0 01-1-1 1 1 0 011-1h14.387a1 1 0 011 1 1 1 0 01-1 1z"/><path data-name="線 936" d="M30.451 26.548H16.064a1 1 0 01-1-1 1 1 0 011-1h14.387a1 1 0 011 1 1 1 0 01-1 1z"/><path data-name="線 937" d="M30.451 32.226H16.064a1 1 0 01-1-1 1 1 0 011-1h14.387a1 1 0 011 1 1 1 0 01-1 1z"/><path data-name="線 938" d="M30.451 37.903H16.064a1 1 0 01-1-1 1 1 0 011-1h14.387a1 1 0 011 1 1 1 0 01-1 1z"/></g><path data-name="パス 3268" d="M20.483 48.193h-2v-5.677a1 1 0 011-1h7.548v2h-6.548z"/></g><path data-name="線 939" d="M52.257 51.967H5.419a1 1 0 01-1-1 1 1 0 011-1h46.838a1 1 0 011 1 1 1 0 01-1 1z"/></g></g><g data-name="グループ 5332"><path data-name="パス 3269" d="M37.516 48.19h-2V15.258h-5.064a1 1 0 01-1-1V10.29H17.064v3.968a1 1 0 01-1 1H11V48.19H9V14.258a1 1 0 011-1h5.064V9.29a1 1 0 011-1h14.387a1 1 0 011 1v3.968h5.064a1 1 0 011 1z"/></g></g></g></g></g></svg>