<svg xmlns="http://www.w3.org/2000/svg" width="68.279" height="86.969"><path d="M67.686 73.006a13.624 13.624 0 00-5.3-7.71 21.4 21.4 0 00-3.57-2.091c-1.844-.876-3.739-1.545-5.486-2.19a31.355 31.355 0 01-4.626-2l-.141-.08a9.184 9.184 0 01-1.216-.839 5.309 5.309 0 01-1.247-1.447 4.678 4.678 0 01-.579-1.866 6.261 6.261 0 01-.08-1.019 22 22 0 01.475-4.358 16.742 16.742 0 002.182-3.206 35.068 35.068 0 001.975-4.512 8.894 8.894 0 001.239-.69 8.794 8.794 0 002.543-2.654 13.774 13.774 0 001.725-4.379 6.6 6.6 0 00-.475-4.3 7.617 7.617 0 00-1.04-1.635c.21-.775.464-1.815.69-3.042a32.4 32.4 0 00.576-5.871 21.576 21.576 0 00-.39-4.22 15.142 15.142 0 00-.955-3.108 11.58 11.58 0 00-2.933-4.1 12.072 12.072 0 00-4.618-2.505 15.651 15.651 0 00-1.991-2.022 11.026 11.026 0 00-1.789-1.237A10.127 10.127 0 0039.817.87a14.323 14.323 0 00-3-.281c-1.42.005-2.914.143-4.565.305-.621.064-1.147.141-1.6.22-.679.122-1.184.25-1.592.329a4.72 4.72 0 01-.557.09 3.476 3.476 0 01-.536.037 6.366 6.366 0 01-.953-.08 21.318 21.318 0 01-3.156-.71c-.433-.133-.807-.26-1.1-.372-.145-.052-.272-.108-.372-.148s-.183-.08-.228-.1a1.329 1.329 0 00-.372-.131 1.451 1.451 0 00-.3-.029 1.645 1.645 0 00-.419.053 2.189 2.189 0 00-.25.088 2.385 2.385 0 00-.35.178 6.1 6.1 0 00-.576.4 13.832 13.832 0 00-1.123.982 18.623 18.623 0 00-1.822 2.039 12.566 12.566 0 00-.815 1.192 8.319 8.319 0 00-.634 1.279 34.327 34.327 0 00-1.752 6.078 28.208 28.208 0 00-.48 5.146 34.773 34.773 0 00.7 6.579 10.127 10.127 0 00.059.796c.027.276.064.563.085.8l.029.311a.77.77 0 01.008.1v.191l.34 1.5a7.831 7.831 0 00-1.234 1.778 6.624 6.624 0 00-.56 4.48v-.005a15.3 15.3 0 001.046 3.126 9.633 9.633 0 002.317 3.2 8.452 8.452 0 002.147 1.4 35.378 35.378 0 001.974 4.509 16.573 16.573 0 002.182 3.2 22.3 22.3 0 01.475 4.366 6.225 6.225 0 01-.08 1.016 4.762 4.762 0 01-.329 1.348 4.607 4.607 0 01-1.075 1.579 8.406 8.406 0 01-1.807 1.324l-.565.3c-.6.308-1.261.6-1.964.887-1.622.658-3.474 1.279-5.351 2.025a30.332 30.332 0 00-4.188 2 17.056 17.056 0 00-2.9 2.121 13.322 13.322 0 00-3.318 4.682 17.409 17.409 0 00-1.255 6.837 2.927 2.927 0 00.212 1.067 3.951 3.951 0 00.48.865 6.672 6.672 0 001.439 1.391 17.428 17.428 0 004.167 2.139 51.707 51.707 0 0010.81 2.553 122.227 122.227 0 0017.031 1.061 128.523 128.523 0 0015.139-.812 70.8 70.8 0 008.212-1.439 38.616 38.616 0 004.528-1.38 21.888 21.888 0 002.551-1.141 12.434 12.434 0 001.478-.908 6.7 6.7 0 001.561-1.5 3.989 3.989 0 00.483-.886 2.976 2.976 0 00.188-1.014 18.924 18.924 0 00-.594-4.875zm-36.358.146l-9.066-12.49c.117-.085.231-.175.345-.263a8.62 8.62 0 001.362-1.351l7.309 3.392-1.563 2.6 2.418 2.56zM25.01 57.333a7.764 7.764 0 00.576-2.256 9.228 9.228 0 00.093-1.308 25.648 25.648 0 00-.616-5.34l-.085-.385-.273-.289a13.3 13.3 0 01-2.02-2.9 33.549 33.549 0 01-2.012-4.714l-.226-.632-.629-.228a5.8 5.8 0 01-2.994-2.452 10.957 10.957 0 01-1.354-3.487 3.748 3.748 0 01.329-2.574 5.153 5.153 0 01.934-1.285 21.7 21.7 0 001.391 1.967c.642.64.733-.868.43-2.561-.563-3.116 2.85-6.816 3.2-14.082 7.681 1.707 22.7-1.555 22.7-1.555a14.132 14.132 0 002.723 7.142c2.431 3.238 3.809 10.839 3.809 10.839s.332-.626.823-1.465a4.814 4.814 0 01.722 1.1 3.83 3.83 0 01.372 1.63 3.7 3.7 0 01-.1.839 12.3 12.3 0 01-.844 2.545 7 7 0 01-1.635 2.29 5.761 5.761 0 01-1.868 1.1l-.626.228-.223.629a34.618 34.618 0 01-2.014 4.719 13.3 13.3 0 01-2.025 2.9l-.271.289-.085.385a25.411 25.411 0 00-.616 5.335 8.534 8.534 0 00.1 1.311 7.664 7.664 0 00.5 2.065.714.714 0 00.04.09l-8.65 4.553zm12.66 16.413l-.892-6.146 2.408-2.56-1.566-2.612 6.611-3.472a8.78 8.78 0 00.581.666 10.043 10.043 0 001.221 1.056z" fill="#111"/></svg>