<svg xmlns="http://www.w3.org/2000/svg" width="22.883" height="29.844"><path d="M2.046 1.264C-.005 2.594-.407 6.751.367 10.139a30.6 30.6 0 004.046 9.511 31.783 31.783 0 007.034 7.573c2.778 2.089 6.738 3.416 8.788 2.086a10.385 10.385 0 002.648-2.839l-1.1-1.7-3.031-4.67c-.225-.347-1.637-.03-2.354.376a6.828 6.828 0 00-1.859 2.024c-.663.383-1.219 0-2.38-.533-1.427-.656-3.031-2.7-4.308-4.543C6.688 15.5 5.478 13.2 5.46 11.633c-.014-1.278-.136-1.941.484-2.39a6.829 6.829 0 002.6-.873c.663-.489 1.529-1.649 1.3-2L6.82 1.7 5.718 0a10.386 10.386 0 00-3.672 1.264z" fill="#fff"/></svg>