<svg xmlns="http://www.w3.org/2000/svg" width="16.316" height="21.281"><path d="M1.459.901c-1.462.948-1.75 3.913-1.2 6.329a21.824 21.824 0 002.886 6.782 22.665 22.665 0 005.016 5.4c1.981 1.489 4.8 2.436 6.267 1.488a7.406 7.406 0 001.888-2.025l-.786-1.211-2.16-3.331c-.161-.248-1.167-.021-1.679.268a4.87 4.87 0 00-1.325 1.44c-.473.273-.869 0-1.7-.38a10.08 10.08 0 01-3.072-3.24 10.08 10.08 0 01-1.7-4.12c-.01-.911-.1-1.384.345-1.7a4.87 4.87 0 001.855-.623c.473-.349 1.09-1.176.93-1.423l-2.16-3.331L4.078.001a7.406 7.406 0 00-2.619.9z"/></svg>