<svg xmlns="http://www.w3.org/2000/svg" width="28.044" height="25.942"><path d="M13.96 0c8.39 0 14.084 4.277 14.084 10.931a10.7 10.7 0 01-4.99 9.485c-.219.141-.478.162-.381.568.392 1.64 1.074 4.561 1.074 4.561a.323.323 0 01-.468.358s-4.813-2.852-5.454-3.208a7.335 7.335 0 00-3.755-1.022C7.415 21.674 0 19.011 0 10.86 0 4.538 5.1 0 13.96 0z" fill="#fff"/><g transform="translate(5.688 8.89)" fill="#ff5a57"><circle cx="1.944" cy="1.944" r="1.944"/><circle cx="1.944" cy="1.944" r="1.944" transform="translate(6.416)"/><circle cx="1.944" cy="1.944" r="1.944" transform="translate(12.832)"/></g></svg>