<svg xmlns="http://www.w3.org/2000/svg" width="27.949" height="32.945"><path d="M8.353.852L6.813 1.93l4.966 7.085 1.54-1.08a1.492 1.492 0 00.365-2.076L10.43 1.217A1.491 1.491 0 008.353.852zm.84 18.971c4.63 6.607 11.778 11.306 14.746 9.225l.426-.298-4.989-7.118a1.488 1.488 0 01-1.668-.373 33.574 33.574 0 01-3.823-4.724 33.574 33.574 0 01-3.136-5.206 1.488 1.488 0 01.219-1.694l-4.99-7.12-.425.3c-2.968 2.08-.99 10.402 3.64 17.008zM21.774 20l-1.54 1.08 4.966 7.085 1.54-1.079a1.491 1.491 0 00.365-2.077l-3.254-4.642A1.492 1.492 0 0021.774 20z" fill="#fff"/></svg>